# xmcd
#
# Track frame offsets:
#	150
#	7117
#	38665
#	53630
#	71385
#	96025
#	120852
#	139422
#	159137
#	179732
#	201012
#
# Disc length: 2997 seconds
#
# Revision: 2
# Processed by: cddbd v1.4PL0 Copyright (c) Steve Scherf et al.
# Submitted via: audiograbber 1.81.03
#
DISCID=8a0bb30b
DTITLE=Vários - Antone's 20 Anniversary
DYEAR=1900
DGENRE=Blues
TTITLE0=Intro/Chicken Shack
TTITLE1=Little Girl, Little Girl
TTITLE2=Chicago Bound
TTITLE3=What It Takes
TTITLE4=How Long Can A Bell Ring
TTITLE5=A Woman
TTITLE6=I'm Ready
TTITLE7=Going Back Home
TTITLE8=Sweet Home Chicago
TTITLE9=You're Still Here
TTITLE10=I'm Leaving You
EXTD=
EXTT0=
EXTT1=
EXTT2=
EXTT3=
EXTT4=
EXTT5=
EXTT6=
EXTT7=
EXTT8=
EXTT9=
EXTT10=
PLAYORDER=
